<?xml version="1.0" encoding="UTF-8" standalone="no"?>
<svg width="483px" height="483px" viewBox="0 0 483 483" version="1.1" xmlns="http://www.w3.org/2000/svg" xmlns:xlink="http://www.w3.org/1999/xlink" xmlns:sketch="http://www.bohemiancoding.com/sketch/ns">
    <!-- Generator: Sketch 3.3.2 (12043) - http://www.bohemiancoding.com/sketch -->
    <title>Oval 1 + udacity_logo</title>
    <desc>Created with Sketch.</desc>
    <defs>
        <path id="path-1" d="M0,0 L411.625,0 L411.625,417.8675 L0,417.8675 L0,0 L0,0 Z"></path>
    </defs>
    <g id="Page-1" stroke="none" stroke-width="1" fill="none" fill-rule="evenodd" sketch:type="MSPage">
        <g id="Oval-1-+-udacity_logo" sketch:type="MSLayerGroup" transform="translate(15.000000, 15.000000)">
            <circle id="Oval-1" stroke="#F8981C" stroke-width="30" sketch:type="MSShapeGroup" cx="226.5" cy="226.5" r="226.5"></circle>
            <g id="udacity_logo" transform="translate(21.000000, 32.000000)">
                <g id="g10" transform="translate(206.000000, 209.862500) scale(1, -1) translate(-206.000000, -209.862500) translate(0.000000, 0.862500)">
                    <g id="g12">
                        <g id="g14">
                            <g id="g16-Clipped">
                                <mask id="mask-2" sketch:name="path20" fill="white">
                                    <use xlink:href="#path-1"></use>
                                </mask>
                                <g id="path20"></g>
                                <g id="g16" mask="url(#mask-2)" fill="#F8981C" sketch:type="MSShapeGroup">
                                    <g transform="translate(84.875000, 87.375000)" id="path22">
                                        <path d="M2.51075,201.52875 C2.017625,201.68375 1.455125,201.97375 1.0645,202.3575 C-0.192875,203.615 -0.192875,205.6525 1.0645,206.90875 L65.835,206.90875 C67.08625,205.6525 67.08625,203.615 65.835,202.3575 C65.37875,201.9025 64.74875,201.5975 64.15875,201.47 L52.35625,199.54625 C48.50125,198.8 45.59625,195.4075 45.59375,191.3375 L45.59375,81.465 C45.59375,71.77375 47.3425,59.715 50.1125,50.87 C52.88375,42.02625 60.96,32.402375 70.7575,28.2685 C80.13125,24.334 92.0975,21.92875 105.045,21.92875 C118.7125,21.92875 131.195,24.57125 140.7875,28.90625 C150.28125,33.1475 157.6675,41.40375 160.7875,51.445 C163.45875,60.17875 165.04625,70.50125 165.04625,81.465 L165.04625,209.15625 C165.04625,236.7925 178.62625,245.92 199.96,245.92 L238.30125,245.92 C239.72125,244.4975 239.72125,242.1975 238.30125,240.77625 C237.7825,240.26125 237.0675,239.9125 236.40375,239.77375 L223.0375,237.92 C215.1275,236.535 213.05625,233.39 213.05625,225.1375 L212.97625,210.64625 L212.97625,79.2825 C212.97625,70.89125 212.21125,62.71875 210.91125,55.20625 C206.56875,30.673875 187.7675,11.026375 163.69625,5.38625 C149.205,1.933625 132.69625,0.0415 115.245,0.0415 C97.74,0.0415 81.14125,2.004875 66.62625,5.479 C43.31875,11.21625 25.039,30.140125 20.285625,53.8225 C18.627875,62.19125 17.6475,71.3825 17.6475,80.9225 L17.659625,191.3375 C17.659625,195.30125 14.84625,198.65 11.140125,199.50875"></path>
                                    </g>
                                </g>
                            </g>
                        </g>
                    </g>
                </g>
            </g>
        </g>
    </g>
</svg>